<?xml version="1.0" encoding="UTF-8" standalone="no"?> <svg width="512" height="512" viewBox="0 0 512 512" fill="none" xmlns="http://www.w3.org/2000/svg">
<path fill-rule="evenodd" clip-rule="evenodd" d="M128 24C70.5624 24 24 70.5624 24 128V384C24 441.438 70.5624 488 128 488H384C441.438 488 488 441.438 488 384V128C488 70.5624 441.438 24 384 24H128ZM40 128C40 79.3989 79.3989 40 128 40H384C432.601 40 472 79.3989 472 128V384C472 432.601 432.601 472 384 472H128C79.3989 472 40 432.601 40 384V128ZM176 100C151.699 100 132 119.699 132 144V368C132 392.301 151.699 412 176 412H320C361.974 412 396 377.974 396 336V304C396 270.465 374.287 242.017 344.156 231.922C346.651 224.394 348 216.349 348 208V176C348 134.026 313.974 100 272 100H176ZM148 144C148 128.536 160.536 116 176 116H272C305.137 116 332 142.863 332 176V208C332 217.277 329.9 226.04 326.158 233.862C325.092 236.09 325.114 238.685 326.219 240.894C327.324 243.103 329.387 244.677 331.809 245.16C359.292 250.642 380 274.911 380 304V336C380 369.137 353.137 396 320 396H176C160.536 396 148 383.464 148 368V144ZM180 140C175.582 140 172 143.582 172 148V236C172 240.418 175.582 244 180 244H272C291.882 244 308 227.882 308 208V176C308 156.118 291.882 140 272 140H180ZM188 228V156H272C283.046 156 292 164.954 292 176V208C292 219.046 283.046 228 272 228H188ZM180 268C175.582 268 172 271.582 172 276V364C172 368.418 175.582 372 180 372H320C339.882 372 356 355.882 356 336V304C356 284.118 339.882 268 320 268H180ZM188 356V284H320C331.046 284 340 292.954 340 304V336C340 347.046 331.046 356 320 356H188Z" fill="url(#paint0_linear)"/>
<defs>
<linearGradient id="paint0_linear" x1="64" y1="64" x2="448" y2="448" gradientUnits="userSpaceOnUse">
<stop stop-color="#FF003D"/>
<stop offset="1" stop-color="#3D00EB"/>
</linearGradient>
</defs>
</svg>
